<?xml version="1.0" encoding="utf-8"?>
<svg xmlns="http://www.w3.org/2000/svg">
  <defs>
    <symbol id="checkbox-check" viewBox="0 0 18 18">
      <path fill="#0C7D69" d="M16.5 0h-15A1.5 1.5 0 0 0 0 1.5v15A1.5 1.5 0 0 0 1.5 18h15a1.5 1.5 0 0 0 1.5-1.5v-15A1.5 1.5 0 0 0 16.5 0Zm-3.22 7.28-5.25 5.25a.748.748 0 0 1-1.06 0l-2.25-2.25a.75.75 0 1 1 1.06-1.06l1.72 1.72 4.72-4.72a.751.751 0 0 1 1.06 1.06Z"/>
    </symbol>

    <symbol id="radio-selected" viewBox="0 0 20 21">
      <path fill="#0C7D69" d="M10 .75a9.75 9.75 0 1 0 9.75 9.75A9.76 9.76 0 0 0 10 .75Zm0 18a8.25 8.25 0 1 1 8.25-8.25A8.26 8.26 0 0 1 10 18.75Zm5.25-8.25a5.25 5.25 0 1 1-10.499 0 5.25 5.25 0 0 1 10.499 0Z"/>
    </symbol>

    <symbol id="success-check" viewBox="0 0 20 21">
      <path fill="#fff" d="M14.28 7.72a.748.748 0 0 1 0 1.06l-5.25 5.25a.748.748 0 0 1-1.06 0l-2.25-2.25a.75.75 0 1 1 1.06-1.06l1.72 1.72 4.72-4.72a.75.75 0 0 1 1.06 0Zm5.47 2.78A9.75 9.75 0 1 1 10 .75a9.76 9.76 0 0 1 9.75 9.75Zm-1.5 0A8.25 8.25 0 1 0 10 18.75a8.26 8.26 0 0 0 8.25-8.25Z"/>
    </symbol>
  </defs>
</svg>